<svg xmlns="http://www.w3.org/2000/svg"><symbol id="close" viewBox="0 0 400 400"><path d="M246.6 199.6L400 354.3l-48.4 45-151.8-153.5L48.1 399.3l-48.4-45L153 199.6-.3 45 48.1 0l151.7 153.4L351.6 0 400 45 246.6 199.6z"/></symbol><symbol id="github" viewBox="0 0 400 400"><path d="M248.6 360.9c0-6.8 0-13.6.1-20.5 0-2.2.5-4.4.5-6.6s-.6-4.4-.5-6.6c.2-6.3-1.3-12.2-3.2-18.2a36.2 36.2 0 0 0-8.5-14c-1.7-1.8-1.6-2 .8-2.4 8.1-1.6 16.3-2.8 24.3-4.8 15.2-3.9 29.2-10.5 40.4-21.8 9.8-9.8 15.7-21.9 19.5-35.1s4.9-29.3 3.9-44.1-6-26.2-14.2-37.4a8.2 8.2 0 0 0-1.9-2.5c-4.3-3.1-3.4-6.7-2.3-11.1a59.9 59.9 0 0 0 2.4-16.2 77.2 77.2 0 0 0-5.1-27.7c-.8-1.9-1.9-2.9-3.9-2.7a80.6 80.6 0 0 0-9.7 1.3 101.6 101.6 0 0 0-29.9 12.8c-2.4 1.4-5 2.5-7.1 4.2s-6 2.3-9.5 1.5c-10.6-2.5-21.2-4.6-32.2-4.9-5.6-.1-11.3-.9-16.9-.6-8.7.5-17.4 1.4-26.1 2.6-5.6.8-11.1 2.3-16.5 3.5a6.6 6.6 0 0 1-5.6-1c-8.8-5.8-17.9-11.2-27.8-14.7a115.5 115.5 0 0 0-18.2-4.6c-4.1-.7-5.1-.2-6.6 4.3a77.4 77.4 0 0 0-4.6 27 64.6 64.6 0 0 0 3.1 18.5 4.8 4.8 0 0 1-.8 5A143.5 143.5 0 0 0 82 160.2a67.2 67.2 0 0 0-7.7 27 119.6 119.6 0 0 0 7.2 53.7 71 71 0 0 0 25.4 32.9c12.2 8.8 26 13.4 40.5 16.4 4.9 1 9.9 1.6 14.8 2.4 2.2.4 2.5 1.1.8 2.7-5.9 5.9-9.1 13.1-10.5 21.1-.6 3.4-2.5 4.8-5.7 6-8.1 3.2-16.5 3.4-24.8 2.8s-13.8-4-19.4-8.9-7.6-8.7-10.7-13.6A40.2 40.2 0 0 0 74.7 287a43.4 43.4 0 0 0-10.4-3.3c-2.4-.4-5 .2-7.4.8s-2.9 2.4-1.4 4.2a22.1 22.1 0 0 0 5.8 5.2c11.4 6.7 17.5 17.5 22.4 29.1s12.6 18 23.2 22.4c8.7 3.7 18 4.6 27.4 4 4.3-.3 8.6-1.1 12.9-1.8s3.7-.5 3.8 3.2v34.8c-.1 5.4-3.4 8.6-8.7 9.3s-10.1-1.7-14.8-3.5a187.9 187.9 0 0 1-38.7-20.3 225.3 225.3 0 0 1-24.9-19.8 194.2 194.2 0 0 1-33-39.9 192.4 192.4 0 0 1-24.8-59.3c-2.5-11-4.5-22.1-4.8-33.4-.2-5.7-.9-11.5-.7-17.3.4-8.1 1.4-16.1 2.2-24.2 1.3-12.9 4.7-25.3 8.9-37.4a189.8 189.8 0 0 1 18.8-39.4 168 168 0 0 1 19.1-25.9c6.8-7.5 14.3-14.4 21.7-21.2s17.4-13.4 26.9-19.2c12.2-7.5 25.4-13.1 38.9-17.8A216.6 216.6 0 0 1 175 7.6c4.6-.6 9.2-.6 13.8-.9s6.8-.9 10.1-.7c7.4.3 14.7.7 22 1.5s16.3 2.3 24.4 3.9c18.7 3.9 36.1 11.2 52.8 20.3a204.1 204.1 0 0 1 48.8 38.8 225.1 225.1 0 0 1 14.7 17.9c8.5 11.3 15.2 23.7 21 36.5a171.5 171.5 0 0 1 12.5 38.9c1.3 7.2 2.2 14.5 3.2 21.7 1.7 11.7 1.1 23.4.6 35.1a176.3 176.3 0 0 1-6.6 38.6 205.4 205.4 0 0 1-18 43.6 188.9 188.9 0 0 1-19 28 197.7 197.7 0 0 1-20.8 22.1 190.8 190.8 0 0 1-32.8 24.3 198.4 198.4 0 0 1-30.1 14.5c-4 1.5-8 3.1-12.5 3.2-6.7.2-10.4-4.7-10.5-10.3z"/><path d="M114.5 332.4c-2.9 0-5.4-1.8-5.5-4s1.9-3.3 4.2-3.4 5.2 1.9 5.3 4.2-1.2 3.2-4 3.2zm31.3-6.6c2.2.1 4.2 1.3 4.2 2.8a4.1 4.1 0 0 1-3.1 4c-2.2.8-4.1.7-5.7-1a3.4 3.4 0 0 1-.5-2.8c.4-1.6 3.1-3 5.1-3zm-44.6-1.3a4.7 4.7 0 0 1-5-4.8c-.1-1.8.3-3.2 2.4-3.3s5.6 2.7 5.7 5-.9 3-3.1 3.1zm28.4 3.7h1.7c1.7-.1 3.1.6 3.2 2.2a5.4 5.4 0 0 1-1.4 3.4c-1.2 1.4-4.9 1.5-6.2.2a4.8 4.8 0 0 1-1.3-3.4c.1-.8 1.3-1.7 2.2-2.2a3.1 3.1 0 0 1 1.8-.2zm-40.1-22.9a5.2 5.2 0 0 1 4.5 5c-.1 2.1-1.3 3.2-3.2 3.1s-4.3-2.5-4.1-5.2 1-3 2.8-2.9zm-4.1-5.8c-.1 1.3-.4 2.7-2.4 2.7s-4.1-2.3-4.2-4.5a2.3 2.3 0 0 1 2.3-2.6c2.2-.2 4.2 1.7 4.3 4.4zm-9.9-5.9c-2.8.1-4.5-1.3-4.5-3.1s1.1-2.2 2.5-2.3 4.1 2 3.7 3.2-1.3 1.8-1.7 2.2z"/></symbol><symbol id="instagram" viewBox="0 0 400 400"><path d="M399.2 124.9c-.4-20.1-2.5-39.8-10.5-58.4-13.9-32.5-38.5-52.3-72.5-60.9-15.3-3.9-31-4.6-46.6-5.1-1.2 0-2.3-.4-3.5-.5H134.7c-3 .2-6 .7-9 .7-20 .5-39.8 2.6-58.4 10.5C34.9 25.1 15.1 49.8 6.4 83.7c-3.9 15.3-4.9 31-5 46.7-.2 44.2-.6 88.4-.2 132.6.1 19.2.8 38.5 6.5 57.1 12.9 42 41.4 66.5 84 75 22 4.3 44.4 3.9 66.6 4 34.7.1 69.4.2 104.2-.3 19.4-.2 39-.7 57.9-6.4 42.3-12.7 67.3-41.4 75.4-84.4 2.4-12.8 2.5-26.2 3.6-39.3.1-1.1.4-2.3.6-3.4V133.8c-.3-3-.7-6-.8-8.9zm-35.6 74.9h-.2c0 21.4.2 42.8-.1 64.1-.3 14.5-.6 29-4.3 43.2-7.9 30.1-27.6 47.6-57.8 52.2-16.5 2.6-33.5 3.1-50.4 3.4-36.4.4-72.8.3-109.2-.1-16.3-.2-32.7-.3-48.7-4.5-30.1-7.8-47.6-27.5-52.3-57.7-2.6-16.6-3.1-33.6-3.3-50.4-.5-36.4-.4-72.9 0-109.3.2-16.3.4-32.7 4.5-48.7 7.8-30.1 27.6-47.5 57.7-52.2 16.6-2.6 33.6-3.1 50.5-3.3 36.4-.5 72.8-.4 109.2 0 16.3.2 32.7.3 48.7 4.5 30.1 7.8 47.6 27.5 52.3 57.7 2.6 16.7 2.8 33.9 3.3 50.8s.1 33.5.1 50.3z"/><path d="M200.5 96.8c-56.6 0-102.8 46.1-102.8 102.6s46.1 102.9 102.8 102.9S303.1 256 303.1 199.5 257 96.8 200.5 96.8zm-.6 169.1c-36.2-.1-65.8-30-65.8-66.6s29.8-66.1 66.6-66.1 66 29.9 66 66.8-29.9 65.9-66.8 65.9zM307 68.9a24.1 24.1 0 1 0 24 24.2 24 24 0 0 0-24-24.2z"/></symbol><symbol id="twitter" viewBox="0 0 400 400"><path d="M316.7 0H83.3A83.3 83.3 0 0 0 0 83.3v233.3A83.4 83.4 0 0 0 83.3 400h233.4a83.4 83.4 0 0 0 83.3-83.4V83.3A83.3 83.3 0 0 0 316.7 0zm-2.4 153.9c3.5 77-53.9 162.8-155.4 162.8A155.1 155.1 0 0 1 75 292.1a110.3 110.3 0 0 0 81-22.7 54.5 54.5 0 0 1-51.1-38 53.9 53.9 0 0 0 24.7-.9c-26.3-5.3-44.5-29-43.9-54.3a54.7 54.7 0 0 0 24.8 6.8 54.7 54.7 0 0 1-17-73 155.4 155.4 0 0 0 112.8 57.1 54.8 54.8 0 0 1 93.2-49.9 110 110 0 0 0 34.8-13.2 54.5 54.5 0 0 1-24.1 30.2 107.2 107.2 0 0 0 31.5-8.6 110 110 0 0 1-27.4 28.3z"/></symbol><symbol id="pinterest" viewBox="0 0 400 400"><path d="M316.7 0H83.3A83.3 83.3 0 0 0 0 83.3v233.3A83.4 83.4 0 0 0 83.3 400h233.4a83.4 83.4 0 0 0 83.3-83.4V83.3A83.3 83.3 0 0 0 316.7 0zM200 333.3a132.6 132.6 0 0 1-39.5-6c5.5-8.8 13.6-23.3 16.6-34.9l8.3-31.7c4.4 8.3 17.1 15.3 30.6 15.3 40.2 0 69.2-37 69.2-82.9 0-44.1-36-77-82.3-77-57.5 0-88.1 38.6-88.1 80.6 0 19.6 10.5 43.9 27.1 51.7 2.5 1.2 3.9.7 4.5-1.8l3.7-15.1a4 4 0 0 0-1-3.8c-5.5-6.7-9.9-19-9.9-30.4 0-29.5 22.3-57.9 60.2-57.9 32.8 0 55.7 22.3 55.7 54.2 0 36.1-18.2 61.1-41.9 61.1-13.1 0-22.9-10.8-19.8-24.1 3.8-15.9 11.1-33 11.1-44.4s-5.5-18.8-16.9-18.8c-13.4 0-24.1 13.9-24.1 32.4a48.1 48.1 0 0 0 4 19.8s-13.3 55.9-15.7 66.3-1.6 27.7-.4 38.2a133.2 133.2 0 1 1 48.6 9.2z"/></symbol><symbol id="facebook" viewBox="0 0 400 400"><path d="M231.3 398.4V259h2.2c14.1 0 28.1-.1 42.2 0 1.5 0 2.2-.2 2.5-2 1.9-13.4 4.1-26.7 6.2-40 .7-4.9 1.5-9.7 2.2-14.6a6.5 6.5 0 0 0 0-1.4h-55.4v-2c0-11.8-.1-23.6.1-35.4.1-7.7 1.6-15.1 6.8-21.3a25.7 25.7 0 0 1 17.4-9.2c7.2-.7 14.6-.6 21.9-.8 3.8-.1 7.7 0 11.7 0V83.2l-10-1.5c-6.8-.8-13.5-1.5-20.3-2.1-16.7-1.3-33.2-.8-49 5.9-19.5 8.4-31.6 23.3-37.5 43.5a83.2 83.2 0 0 0-3.4 21.6c-.2 16-.2 31.9-.3 47.8v2.4h-50.5v58.1h50.4v139.4C91.3 388.4 9.3 320.5.7 218.2-9 102.5 78.6 8.9 185.5 1.5c116.8-8.1 210 82.4 214.3 190.7 4.5 113.6-81.4 194.4-168.5 206.2z"/></symbol><symbol id="hamburger" viewBox="0 0 400 400"><path d="M400 100H0V33.3h400zm0 66.6H0v66.7h400zm0 133.4H0v66.6h400z"/></symbol></svg>