<svg id="Layer_1" data-name="Layer 1" xmlns="http://www.w3.org/2000/svg" width="9in" height="9in" viewBox="0 0 649.3 649.6"><polygon points="1.4 0.6 143.1 0.6 304.6 162.1 466.7 0.6 608.2 0.6 304.8 304.3 1.4 0.6"/><path d="M304.8,305.1l-.4-.4L0,0H143.4V.2L304.6,161.4,466.5,0h143l-.9,1ZM2.7,1.1,304.8,303.5,606.8,1.1H467L304.6,162.9,142.9,1.1Z"/><polygon points="648.7 41 345.2 345.6 648.7 647.9 648.7 506.6 487.2 344.5 648.7 182.6 648.7 41"/><path d="M649.3,649.3,344.4,345.6l.4-.4L649.3,39.7V182.9h-.2L488,344.5,649.3,506.4ZM346,345.6l302.2,301V506.8L486.4,344.5l.4-.4L648.2,182.4V42.4Z"/><polygon points="1.4 81.8 1.6 648.2 102.6 547 102.6 182.8 1.4 81.8"/><path d="M1,649.6.8,80.4,103.1,182.6V547.2l-.2.2ZM1.9,83.1l.3,563.8L102,546.8V183Z"/></svg>