<svg height="9in" viewBox="0 0 649.3 649.6" width="9in" xmlns="http://www.w3.org/2000/svg"><path d="m1.4.6h141.7l161.5 161.5 162.1-161.5h141.5l-303.4 303.7z"/><path d="m304.8 305.1-.4-.4-304.4-304.7h143.4v.2l161.2 161.2 161.9-161.4h143l-.9 1zm-302.1-304 302.1 302.4 302-302.4h-139.8l-162.4 161.8-161.7-161.8z"/><path d="m648.7 41-303.5 304.6 303.5 302.3v-141.3l-161.5-162.1 161.5-161.9z"/><path d="m649.3 649.3-304.9-303.7.4-.4 304.5-305.5v143.2h-.2l-161.1 161.6 161.3 161.9zm-303.3-303.7 302.2 301v-139.8l-161.8-162.3.4-.4 161.4-161.7v-140z"/><path d="m1.4 81.8.2 566.4 101-101.2v-364.2z"/><path d="m1 649.6-.2-569.2 102.3 102.2v364.6l-.2.2zm.9-566.5.3 563.8 99.8-100.1v-363.8z"/></svg>