<svg height="64" viewBox="0 0 64 64" width="64" xmlns="http://www.w3.org/2000/svg"><path d="m.1.1h14l15.9 15.9 16-15.9h13.9l-29.9 29.9z"/><path d="m30 30.1-30-30.1h14.1l15.9 15.9 16-15.9h14zm-29.7-30 29.7 29.8 29.8-29.8h-13.8l-16 16-15.9-16z"/><path d="m63.9 4-29.9 30.1 29.9 29.8v-14l-15.9-15.9 15.9-16z"/><path d="m64 64-30.1-29.9h.1l30-30.2v14.1l-15.9 16 15.9 15.9zm-29.9-29.9 29.8 29.6v-13.7l-16-16h.1l15.9-16v-13.8z"/><path d="m.1 8.1.1 55.8 9.9-10v-35.9z"/><path d="m.1 64v-56.1l10.1 10.1v35.9h-.1zm.1-55.8v55.6l9.9-9.9v-35.9z"/></svg>