<svg id="Layer_1" data-name="Layer 1" xmlns="http://www.w3.org/2000/svg" width="32" height="32" viewBox="0 0 32 32"><polygon points="0.1 0 7.1 0 15 8 23 0 30 0 15 15 0.1 0"/><path d="M15,15h0L0,0H7.1L15,7.9,23,0h7ZM.1.1,15,15,29.9.1H23L15,8,7,.1Z"/><polygon points="32 2 17 17 32 31.9 32 25 24 17 32 9 32 2"/><path d="M32,32,17,17h0L32,2V9h0l-8,8,8,7.9ZM17,17,31.9,31.9V25L24,17h0l7.9-8V2.1Z"/><polygon points="0.1 4 0.1 31.9 5.1 26.9 5.1 9 0.1 4"/><path d="M.1,32V4L5.1,9V27h0ZM.1,4.1V31.9l4.9-5V9Z"/></svg>