<svg id="Layer_1" data-name="Layer 1" xmlns="http://www.w3.org/2000/svg" width="64" height="64" viewBox="0 0 64 64"><polygon points="0.1 0.1 14.1 0.1 30 16 46 0.1 59.9 0.1 30 30 0.1 0.1"/><path d="M30,30.1h0L0,0H14.1L30,15.9,46,0H60ZM.3.1,30,29.9,59.8.1H46l-16,16L14.1.1Z"/><polygon points="63.9 4 34 34.1 63.9 63.9 63.9 49.9 48 34 63.9 18 63.9 4"/><path d="M64,64,33.9,34.1H34L64,3.9V18h0L48.1,34,64,49.9ZM34.1,34.1,63.9,63.7V50l-16-16H48L63.9,18V4.2Z"/><polygon points="0.1 8.1 0.2 63.9 10.1 53.9 10.1 18 0.1 8.1"/><path d="M.1,64V7.9L10.2,18V53.9h-.1ZM.2,8.2V63.8l9.9-9.9V18Z"/></svg>