<svg id="Layer_1" data-name="Layer 1" xmlns="http://www.w3.org/2000/svg" width="16" height="16" viewBox="0 0 16 16"><polygon points="0 0 3.5 0 7.5 4 11.5 0 15 0 7.5 7.5 0 0"/><path d="M7.5,7.5h0L0,0H3.5l4,4,4-4H15ZM.1,0,7.5,7.5,14.9,0H11.5l-4,4-4-4Z"/><polygon points="16 1 8.5 8.5 16 16 16 12.5 12 8.5 16 4.5 16 1"/><path d="M16,16,8.5,8.5h0L16,1V4.5h0l-4,4,4,4ZM8.5,8.5l7.4,7.4V12.5L12,8.5h0l3.9-4V1Z"/><polygon points="0 2 0 16 2.5 13.5 2.5 4.5 0 2"/><path d="M0,16V2L2.5,4.5v9h0ZM0,2V15.9l2.5-2.4v-9Z"/></svg>